# xmcd
#
# Track frame offsets: 
#        150
#        12203
#        21851
#        31013
#        42879
#        56308
#        67678
#        79692
#        92367
#        103313
#        114674
#        128462
#        138203
#        150756
#        160211
#        171617
#        184800
#        198967
#        208747
#        221599
#        231661
#        247746
#        258921
#
# Disc length: 3585 seconds
#
# Revision: 1
# Processed by: cddbd v1.5.2PL0 Copyright (c) Steve Scherf et al.
# Submitted via: ExactAudioCopy v0.99pb4
#
DISCID=240dff17
DTITLE=The Stanley Brothers - The Early Starday-King Years 1958-1961 (
DTITLE=Disc 3)
DYEAR=2003
DGENRE=Bluegrass
TTITLE0=Purple Robe
TTITLE1=When Jesus Beckons Me Home
TTITLE2=Jordan
TTITLE3=Pass Me Not
TTITLE4=Lonely Tombs
TTITLE5=Over In The Glory Land
TTITLE6=How Far To Little Rock
TTITLE7=A Few More Seasons
TTITLE8=Where We'll Never Die
TTITLE9=In Heaven We'll Never Grow Old
TTITLE10=Mother No Longer Awaits Me At Home
TTITLE11=If I Lose
TTITLE12=Little Maggie
TTITLE13=God Gave You To Me
TTITLE14=Don't Go Out Tonight
TTITLE15=The Darkest Hour Is Just Before The Dawn
TTITLE16=Rank Stranger
TTITLE17=Let The Church Roll On
TTITLE18=Rock Of Ages
TTITLE19=I Saw The Light
TTITLE20=What A Friend
TTITLE21=Gathering Flowers For The Master's Bouquet
TTITLE22=I'm Ready To Go
EXTD=
EXTT0=
EXTT1=
EXTT2=
EXTT3=
EXTT4=
EXTT5=
EXTT6=
EXTT7=
EXTT8=
EXTT9=
EXTT10=
EXTT11=
EXTT12=
EXTT13=
EXTT14=
EXTT15=
EXTT16=
EXTT17=
EXTT18=
EXTT19=
EXTT20=
EXTT21=
EXTT22=
PLAYORDER=
